<mxfile host="app.diagrams.net" modified="2023-03-16T19:51:50.865Z" agent="5.0 (Windows NT 10.0; Win64; x64) AppleWebKit/537.36 (KHTML, like Gecko) Chrome/111.0.0.0 Safari/537.36" etag="avokjhkAQes3JQ5mRfAc" version="21.0.1" type="github">
  <diagram id="_b0k5pcz21TU8yLiXjsx" name="PÃ¡gina-1">
    <mxGraphModel dx="1120" dy="484" grid="1" gridSize="10" guides="1" tooltips="1" connect="1" arrows="1" fold="1" page="1" pageScale="1" pageWidth="1169" pageHeight="827" math="0" shadow="0">
      <root>
        <mxCell id="0" />
        <mxCell id="1" parent="0" />
        <mxCell id="YyjFwsmyg_Ek1BpVo3EB-13" value="" style="html=1;shadow=0;dashed=0;align=center;verticalAlign=middle;shape=mxgraph.arrows2.bendArrow;dy=15;dx=38;notch=0;arrowHead=55;rounded=1;rotation=90;" parent="1" vertex="1">
          <mxGeometry x="167.49" y="419.86" width="253.18" height="107.63" as="geometry" />
        </mxCell>
        <mxCell id="OXoI7FWKHulJKsjl2YCH-42" value="&lt;b&gt;&lt;font style=&quot;font-size: 18px;&quot;&gt;K-fold cross validation&lt;br&gt;&lt;br&gt;&lt;br&gt;&lt;br&gt;&lt;br&gt;&lt;br&gt;&lt;br&gt;&lt;br&gt;&lt;/font&gt;&lt;/b&gt;" style="rounded=1;whiteSpace=wrap;html=1;absoluteArcSize=1;arcSize=14;strokeWidth=2;fontSize=16;" parent="1" vertex="1">
          <mxGeometry x="347" y="230" width="209" height="200" as="geometry" />
        </mxCell>
        <mxCell id="OXoI7FWKHulJKsjl2YCH-1" value="&lt;font style=&quot;font-size: 20px;&quot;&gt;&lt;b style=&quot;&quot;&gt;Model&lt;/b&gt;&lt;/font&gt;" style="rounded=1;whiteSpace=wrap;html=1;absoluteArcSize=1;arcSize=14;strokeWidth=2;fillColor=#dae8fc;strokeColor=#6c8ebf;" parent="1" vertex="1">
          <mxGeometry x="825" y="305.5" width="100" height="100" as="geometry" />
        </mxCell>
        <mxCell id="OXoI7FWKHulJKsjl2YCH-3" value="Preprocesamiento" style="shape=parallelogram;html=1;strokeWidth=2;perimeter=parallelogramPerimeter;whiteSpace=wrap;rounded=1;arcSize=12;size=0.23;fontSize=20;fontColor=#000000;" parent="1" vertex="1">
          <mxGeometry x="37" y="470" width="245" height="60" as="geometry" />
        </mxCell>
        <mxCell id="OXoI7FWKHulJKsjl2YCH-5" value="Loss function" style="rounded=1;whiteSpace=wrap;html=1;absoluteArcSize=1;arcSize=14;strokeWidth=2;fontSize=20;fontColor=#000000;" parent="1" vertex="1">
          <mxGeometry x="829" y="92.5" width="100" height="50" as="geometry" />
        </mxCell>
        <mxCell id="OXoI7FWKHulJKsjl2YCH-6" value="Optimization method" style="rounded=1;whiteSpace=wrap;html=1;absoluteArcSize=1;arcSize=14;strokeWidth=2;fontSize=20;fontColor=#000000;" parent="1" vertex="1">
          <mxGeometry x="816" y="202.5" width="126" height="51" as="geometry" />
        </mxCell>
        <mxCell id="OXoI7FWKHulJKsjl2YCH-7" value="" style="html=1;shadow=0;dashed=0;align=center;verticalAlign=middle;shape=mxgraph.arrows2.arrow;dy=0.6;dx=27;direction=south;notch=0;fontSize=20;fontColor=#000000;" parent="1" vertex="1">
          <mxGeometry x="855" y="253.5" width="40" height="51" as="geometry" />
        </mxCell>
        <mxCell id="OXoI7FWKHulJKsjl2YCH-8" value="" style="html=1;shadow=0;dashed=0;align=center;verticalAlign=middle;shape=mxgraph.arrows2.arrow;dy=0.6;dx=27;direction=south;notch=0;fontSize=20;fontColor=#000000;" parent="1" vertex="1">
          <mxGeometry x="859" y="152.5" width="40" height="51" as="geometry" />
        </mxCell>
        <mxCell id="OXoI7FWKHulJKsjl2YCH-9" value="" style="html=1;shadow=0;dashed=0;align=center;verticalAlign=middle;shape=mxgraph.arrows2.bendArrow;dy=15;dx=38;notch=0;arrowHead=55;rounded=1;fontSize=20;fontColor=#000000;rotation=90;direction=south;dropTarget=0;snapToPoint=0;portConstraint=none;flipH=1;" parent="1" vertex="1">
          <mxGeometry x="911.25" y="113.75" width="219.5" height="170" as="geometry" />
        </mxCell>
        <mxCell id="OXoI7FWKHulJKsjl2YCH-13" value="Prediction" style="shape=parallelogram;html=1;strokeWidth=2;perimeter=parallelogramPerimeter;whiteSpace=wrap;rounded=1;arcSize=12;size=0.23;fontSize=20;fontColor=#000000;" parent="1" vertex="1">
          <mxGeometry x="1005" y="319.5" width="140" height="75" as="geometry" />
        </mxCell>
        <mxCell id="OXoI7FWKHulJKsjl2YCH-14" value="Testing &lt;br&gt;dataset" style="shape=parallelogram;html=1;strokeWidth=2;perimeter=parallelogramPerimeter;whiteSpace=wrap;rounded=1;arcSize=12;size=0.23;fontSize=20;fontColor=#000000;" parent="1" vertex="1">
          <mxGeometry x="548" y="472.5" width="190" height="60" as="geometry" />
        </mxCell>
        <mxCell id="OXoI7FWKHulJKsjl2YCH-15" value="&lt;span style=&quot;font-size: 20px;&quot;&gt;Optimized model&lt;/span&gt;" style="whiteSpace=wrap;html=1;fillColor=#dae8fc;strokeColor=#6c8ebf;rounded=1;arcSize=14;strokeWidth=2;" parent="1" vertex="1">
          <mxGeometry x="813" y="472.5" width="120" height="60" as="geometry" />
        </mxCell>
        <mxCell id="OXoI7FWKHulJKsjl2YCH-16" value="" style="html=1;shadow=0;dashed=0;align=center;verticalAlign=middle;shape=mxgraph.arrows2.arrow;dy=0.6;dx=27;direction=south;notch=0;fontSize=20;fontColor=#000000;" parent="1" vertex="1">
          <mxGeometry x="857" y="412.5" width="36" height="60" as="geometry" />
        </mxCell>
        <mxCell id="OXoI7FWKHulJKsjl2YCH-17" value="" style="html=1;shadow=0;dashed=0;align=center;verticalAlign=middle;shape=mxgraph.arrows2.arrow;dy=0.62;dx=35;notch=0;fontSize=20;fontColor=#000000;" parent="1" vertex="1">
          <mxGeometry x="738" y="475" width="70" height="55" as="geometry" />
        </mxCell>
        <mxCell id="OXoI7FWKHulJKsjl2YCH-18" value="" style="html=1;shadow=0;dashed=0;align=center;verticalAlign=middle;shape=mxgraph.arrows2.arrow;dy=0.62;dx=35;notch=0;fontSize=20;fontColor=#000000;" parent="1" vertex="1">
          <mxGeometry x="941" y="472.5" width="70" height="55" as="geometry" />
        </mxCell>
        <mxCell id="OXoI7FWKHulJKsjl2YCH-19" value="Prediction" style="shape=parallelogram;html=1;strokeWidth=2;perimeter=parallelogramPerimeter;whiteSpace=wrap;rounded=1;arcSize=12;size=0.23;fontSize=20;fontColor=#000000;" parent="1" vertex="1">
          <mxGeometry x="1001" y="462.5" width="140" height="70" as="geometry" />
        </mxCell>
        <mxCell id="OXoI7FWKHulJKsjl2YCH-29" value="" style="childLayout=tableLayout;recursiveResize=0;shadow=0;fillColor=none;" parent="1" vertex="1">
          <mxGeometry x="361.5" y="274" width="180" height="140" as="geometry" />
        </mxCell>
        <mxCell id="OXoI7FWKHulJKsjl2YCH-30" value="" style="shape=tableRow;horizontal=0;startSize=0;swimlaneHead=0;swimlaneBody=0;top=0;left=0;bottom=0;right=0;dropTarget=0;collapsible=0;recursiveResize=0;expand=0;fontStyle=0;fillColor=none;strokeColor=inherit;" parent="OXoI7FWKHulJKsjl2YCH-29" vertex="1">
          <mxGeometry width="180" height="47" as="geometry" />
        </mxCell>
        <mxCell id="OXoI7FWKHulJKsjl2YCH-31" value="&lt;font style=&quot;font-size: 16px;&quot;&gt;Test&lt;/font&gt;" style="connectable=0;recursiveResize=0;strokeColor=inherit;fillColor=none;align=center;whiteSpace=wrap;html=1;" parent="OXoI7FWKHulJKsjl2YCH-30" vertex="1">
          <mxGeometry width="60" height="47" as="geometry">
            <mxRectangle width="60" height="47" as="alternateBounds" />
          </mxGeometry>
        </mxCell>
        <mxCell id="OXoI7FWKHulJKsjl2YCH-32" value="&lt;font style=&quot;font-size: 16px;&quot;&gt;Train&lt;/font&gt;" style="connectable=0;recursiveResize=0;strokeColor=inherit;fillColor=none;align=center;whiteSpace=wrap;html=1;" parent="OXoI7FWKHulJKsjl2YCH-30" vertex="1">
          <mxGeometry x="60" width="60" height="47" as="geometry">
            <mxRectangle width="60" height="47" as="alternateBounds" />
          </mxGeometry>
        </mxCell>
        <mxCell id="OXoI7FWKHulJKsjl2YCH-33" value="&lt;font style=&quot;font-size: 16px;&quot;&gt;Train&lt;/font&gt;" style="connectable=0;recursiveResize=0;strokeColor=inherit;fillColor=none;align=center;whiteSpace=wrap;html=1;" parent="OXoI7FWKHulJKsjl2YCH-30" vertex="1">
          <mxGeometry x="120" width="60" height="47" as="geometry">
            <mxRectangle width="60" height="47" as="alternateBounds" />
          </mxGeometry>
        </mxCell>
        <mxCell id="OXoI7FWKHulJKsjl2YCH-34" style="shape=tableRow;horizontal=0;startSize=0;swimlaneHead=0;swimlaneBody=0;top=0;left=0;bottom=0;right=0;dropTarget=0;collapsible=0;recursiveResize=0;expand=0;fontStyle=0;fillColor=none;strokeColor=inherit;" parent="OXoI7FWKHulJKsjl2YCH-29" vertex="1">
          <mxGeometry y="47" width="180" height="46" as="geometry" />
        </mxCell>
        <mxCell id="OXoI7FWKHulJKsjl2YCH-35" value="&lt;font style=&quot;font-size: 16px;&quot;&gt;Train&lt;/font&gt;" style="connectable=0;recursiveResize=0;strokeColor=inherit;fillColor=none;align=center;whiteSpace=wrap;html=1;" parent="OXoI7FWKHulJKsjl2YCH-34" vertex="1">
          <mxGeometry width="60" height="46" as="geometry">
            <mxRectangle width="60" height="46" as="alternateBounds" />
          </mxGeometry>
        </mxCell>
        <mxCell id="OXoI7FWKHulJKsjl2YCH-36" value="&lt;font style=&quot;font-size: 16px;&quot;&gt;Test&lt;/font&gt;" style="connectable=0;recursiveResize=0;strokeColor=inherit;fillColor=none;align=center;whiteSpace=wrap;html=1;" parent="OXoI7FWKHulJKsjl2YCH-34" vertex="1">
          <mxGeometry x="60" width="60" height="46" as="geometry">
            <mxRectangle width="60" height="46" as="alternateBounds" />
          </mxGeometry>
        </mxCell>
        <mxCell id="OXoI7FWKHulJKsjl2YCH-37" value="&lt;font style=&quot;font-size: 16px;&quot;&gt;Train&lt;/font&gt;" style="connectable=0;recursiveResize=0;strokeColor=inherit;fillColor=none;align=center;whiteSpace=wrap;html=1;" parent="OXoI7FWKHulJKsjl2YCH-34" vertex="1">
          <mxGeometry x="120" width="60" height="46" as="geometry">
            <mxRectangle width="60" height="46" as="alternateBounds" />
          </mxGeometry>
        </mxCell>
        <mxCell id="OXoI7FWKHulJKsjl2YCH-38" style="shape=tableRow;horizontal=0;startSize=0;swimlaneHead=0;swimlaneBody=0;top=0;left=0;bottom=0;right=0;dropTarget=0;collapsible=0;recursiveResize=0;expand=0;fontStyle=0;fillColor=none;strokeColor=inherit;" parent="OXoI7FWKHulJKsjl2YCH-29" vertex="1">
          <mxGeometry y="93" width="180" height="47" as="geometry" />
        </mxCell>
        <mxCell id="OXoI7FWKHulJKsjl2YCH-39" value="&lt;font style=&quot;font-size: 16px;&quot;&gt;Test&lt;/font&gt;" style="connectable=0;recursiveResize=0;strokeColor=inherit;fillColor=none;align=center;whiteSpace=wrap;html=1;" parent="OXoI7FWKHulJKsjl2YCH-38" vertex="1">
          <mxGeometry width="60" height="47" as="geometry">
            <mxRectangle width="60" height="47" as="alternateBounds" />
          </mxGeometry>
        </mxCell>
        <mxCell id="OXoI7FWKHulJKsjl2YCH-40" value="&lt;font style=&quot;font-size: 16px;&quot;&gt;Test&lt;/font&gt;" style="connectable=0;recursiveResize=0;strokeColor=inherit;fillColor=none;align=center;whiteSpace=wrap;html=1;" parent="OXoI7FWKHulJKsjl2YCH-38" vertex="1">
          <mxGeometry x="60" width="60" height="47" as="geometry">
            <mxRectangle width="60" height="47" as="alternateBounds" />
          </mxGeometry>
        </mxCell>
        <mxCell id="OXoI7FWKHulJKsjl2YCH-41" value="&lt;font style=&quot;font-size: 16px;&quot;&gt;Train&lt;/font&gt;" style="connectable=0;recursiveResize=0;strokeColor=inherit;fillColor=none;align=center;whiteSpace=wrap;html=1;" parent="OXoI7FWKHulJKsjl2YCH-38" vertex="1">
          <mxGeometry x="120" width="60" height="47" as="geometry">
            <mxRectangle width="60" height="47" as="alternateBounds" />
          </mxGeometry>
        </mxCell>
        <mxCell id="OXoI7FWKHulJKsjl2YCH-45" value="&lt;b&gt;&lt;font style=&quot;font-size: 20px;&quot;&gt;Dataset&lt;/font&gt;&lt;/b&gt;" style="strokeWidth=2;html=1;shape=mxgraph.flowchart.database;whiteSpace=wrap;fontSize=18;" parent="1" vertex="1">
          <mxGeometry x="68" y="587" width="180" height="98" as="geometry" />
        </mxCell>
        <mxCell id="OXoI7FWKHulJKsjl2YCH-55" value="" style="html=1;shadow=0;dashed=0;align=center;verticalAlign=middle;shape=mxgraph.arrows2.arrow;dy=0.6;dx=40;direction=north;notch=0;fontSize=20;" parent="1" vertex="1">
          <mxGeometry x="128" y="405.5" width="60" height="58" as="geometry" />
        </mxCell>
        <mxCell id="OXoI7FWKHulJKsjl2YCH-57" value="Train the scaler" style="rounded=1;whiteSpace=wrap;html=1;absoluteArcSize=1;arcSize=14;strokeWidth=2;fontSize=20;" parent="1" vertex="1">
          <mxGeometry x="89" y="221" width="130" height="53.5" as="geometry" />
        </mxCell>
        <mxCell id="OXoI7FWKHulJKsjl2YCH-58" value="" style="html=1;shadow=0;dashed=0;align=center;verticalAlign=middle;shape=mxgraph.arrows2.arrow;dy=0.6;dx=27;direction=south;notch=0;fontSize=20;fontColor=#000000;rotation=-180;" parent="1" vertex="1">
          <mxGeometry x="130" y="277.5" width="50" height="48.25" as="geometry" />
        </mxCell>
        <mxCell id="OXoI7FWKHulJKsjl2YCH-59" value="" style="html=1;shadow=0;dashed=0;align=center;verticalAlign=middle;shape=mxgraph.arrows2.arrow;dy=0.6;dx=40;notch=0;fontSize=20;" parent="1" vertex="1">
          <mxGeometry x="229" y="214.75" width="111" height="66" as="geometry" />
        </mxCell>
        <mxCell id="OXoI7FWKHulJKsjl2YCH-61" value="Use the scaler" style="rounded=1;whiteSpace=wrap;html=1;absoluteArcSize=1;arcSize=14;strokeWidth=2;fontSize=20;" parent="1" vertex="1">
          <mxGeometry x="580" y="609.25" width="110" height="53.5" as="geometry" />
        </mxCell>
        <mxCell id="OXoI7FWKHulJKsjl2YCH-62" value="" style="html=1;shadow=0;dashed=0;align=center;verticalAlign=middle;shape=mxgraph.arrows2.arrow;dy=0.6;dx=40;notch=0;fontSize=20;" parent="1" vertex="1">
          <mxGeometry x="252" y="610" width="48" height="44" as="geometry" />
        </mxCell>
        <mxCell id="463bOfzC84vnyIvsKa7U-2" value="&lt;font style=&quot;font-size: 20px;&quot;&gt;&lt;b style=&quot;&quot;&gt;Feature engineering&lt;/b&gt;&lt;/font&gt;" style="rounded=1;whiteSpace=wrap;html=1;absoluteArcSize=1;arcSize=14;strokeWidth=2;fillColor=#CCCCFF;strokeColor=#9999FF;" parent="1" vertex="1">
          <mxGeometry x="79" y="331" width="150" height="67.5" as="geometry" />
        </mxCell>
        <mxCell id="463bOfzC84vnyIvsKa7U-5" value="" style="html=1;shadow=0;dashed=0;align=center;verticalAlign=middle;shape=mxgraph.arrows2.arrow;dy=0.6;dx=40;direction=north;notch=0;fontSize=20;" parent="1" vertex="1">
          <mxGeometry x="128.5" y="530" width="53" height="50" as="geometry" />
        </mxCell>
        <mxCell id="FQRkyqGwiRKNuV5WC54C-1" value="&lt;font style=&quot;font-size: 16px;&quot;&gt;Train&lt;br&gt;&lt;br&gt;&lt;br&gt;&lt;br&gt;&lt;/font&gt;" style="html=1;shadow=0;dashed=0;align=center;verticalAlign=middle;shape=mxgraph.arrows2.bendArrow;dy=15;dx=38;notch=0;arrowHead=55;rounded=1;fontSize=20;" parent="1" vertex="1">
          <mxGeometry x="430" y="90" width="380" height="130" as="geometry" />
        </mxCell>
        <mxCell id="FQRkyqGwiRKNuV5WC54C-3" value="" style="html=1;shadow=0;dashed=0;align=center;verticalAlign=middle;shape=mxgraph.arrows2.arrow;dy=0.6;dx=40;notch=0;fontSize=16;" parent="1" vertex="1">
          <mxGeometry x="941" y="315.25" width="69" height="70" as="geometry" />
        </mxCell>
        <mxCell id="FQRkyqGwiRKNuV5WC54C-5" value="" style="html=1;shadow=0;dashed=0;align=center;verticalAlign=middle;shape=mxgraph.arrows2.arrow;dy=0.62;dx=35;notch=0;fontSize=20;fontColor=#000000;" parent="1" vertex="1">
          <mxGeometry x="460" y="607.75" width="115.5" height="55" as="geometry" />
        </mxCell>
        <mxCell id="YyjFwsmyg_Ek1BpVo3EB-2" value="Hyperparameter tunning" style="rounded=1;whiteSpace=wrap;html=1;absoluteArcSize=1;arcSize=14;strokeWidth=2;fontSize=20;fontColor=#000000;" parent="1" vertex="1">
          <mxGeometry x="620" y="368" width="157" height="51" as="geometry" />
        </mxCell>
        <mxCell id="YyjFwsmyg_Ek1BpVo3EB-3" value="&lt;font style=&quot;font-size: 16px;&quot;&gt;&lt;font style=&quot;font-size: 16px;&quot;&gt;Dev&lt;/font&gt;.&lt;/font&gt;" style="html=1;shadow=0;dashed=0;align=center;verticalAlign=middle;shape=mxgraph.arrows2.arrow;dy=0.6;dx=40;notch=0;fontSize=20;" parent="1" vertex="1">
          <mxGeometry x="560" y="363" width="55" height="59" as="geometry" />
        </mxCell>
        <mxCell id="YyjFwsmyg_Ek1BpVo3EB-4" value="" style="html=1;shadow=0;dashed=0;align=center;verticalAlign=middle;shape=mxgraph.arrows2.arrow;dy=0.62;dx=35;notch=0;fontSize=20;fontColor=#000000;" parent="1" vertex="1">
          <mxGeometry x="780" y="374" width="42" height="36" as="geometry" />
        </mxCell>
        <mxCell id="YyjFwsmyg_Ek1BpVo3EB-5" value="" style="html=1;shadow=0;dashed=0;align=center;verticalAlign=middle;shape=mxgraph.arrows2.bendArrow;dy=15;dx=38;notch=0;arrowHead=55;rounded=1;flipH=1;rotation=-180;" parent="1" vertex="1">
          <mxGeometry x="620" y="133" width="200" height="220" as="geometry" />
        </mxCell>
        <mxCell id="YyjFwsmyg_Ek1BpVo3EB-11" value="Preprocessing" style="rounded=1;whiteSpace=wrap;html=1;absoluteArcSize=1;arcSize=14;strokeWidth=2;fontSize=20;" parent="1" vertex="1">
          <mxGeometry x="304" y="609.25" width="150" height="53.5" as="geometry" />
        </mxCell>
        <mxCell id="YyjFwsmyg_Ek1BpVo3EB-12" value="" style="html=1;shadow=0;dashed=0;align=center;verticalAlign=middle;shape=mxgraph.arrows2.arrow;dy=0.6;dx=40;direction=north;notch=0;fontSize=20;" parent="1" vertex="1">
          <mxGeometry x="600" y="542.25" width="60" height="58" as="geometry" />
        </mxCell>
      </root>
    </mxGraphModel>
  </diagram>
</mxfile>
